{
    "asset" : {
        "generator" : "Khronos glTF Blender I/O v0.9.47",
        "version" : "2.0"
    },
    "scene" : 0,
    "scenes" : [
        {
            "name" : "Scene",
            "nodes" : [
                0
            ]
        }
    ],
    "nodes" : [
        {
            "mesh" : 0,
            "name" : "ara_original"
        }
    ],
    "materials" : [
        {
            "doubleSided" : true,
            "name" : "vertex_col",
            "pbrMetallicRoughness" : {
                "metallicFactor" : 0,
                "roughnessFactor" : 0.5
            }
        }
    ],
    "meshes" : [
        {
            "name" : "ara2.001",
            "primitives" : [
                {
                    "attributes" : {
                        "POSITION" : 0,
                        "NORMAL" : 1,
                        "TEXCOORD_0" : 2,
                        "JOINTS_0" : 3,
                        "WEIGHTS_0" : 4
                    },
                    "indices" : 5,
                    "material" : 0
                },
                {
                    "attributes" : {
                        "POSITION" : 6,
                        "NORMAL" : 7,
                        "TEXCOORD_0" : 8,
                        "JOINTS_0" : 9,
                        "WEIGHTS_0" : 10
                    },
                    "indices" : 11,
                    "material" : 0
                },
                {
                    "attributes" : {
                        "POSITION" : 12,
                        "NORMAL" : 13,
                        "TEXCOORD_0" : 14,
                        "JOINTS_0" : 15,
                        "WEIGHTS_0" : 16
                    },
                    "indices" : 17,
                    "material" : 0
                }
            ]
        }
    ],
    "accessors" : [
        {
            "bufferView" : 0,
            "componentType" : 5126,
            "count" : 65533,
            "max" : [
                2.3049042224884033,
                9.783872604370117,
                1.9112461805343628
            ],
            "min" : [
                -2.1840786933898926,
                -0.13112449645996094,
                -2.050767660140991
            ],
            "type" : "VEC3"
        },
        {
            "bufferView" : 1,
            "componentType" : 5126,
            "count" : 65533,
            "type" : "VEC3"
        },
        {
            "bufferView" : 2,
            "componentType" : 5126,
            "count" : 65533,
            "type" : "VEC2"
        },
        {
            "bufferView" : 3,
            "componentType" : 5123,
            "count" : 65533,
            "type" : "VEC4"
        },
        {
            "bufferView" : 4,
            "componentType" : 5126,
            "count" : 65533,
            "type" : "VEC4"
        },
        {
            "bufferView" : 5,
            "componentType" : 5123,
            "count" : 65541,
            "type" : "SCALAR"
        },
        {
            "bufferView" : 6,
            "componentType" : 5126,
            "count" : 45934,
            "max" : [
                2.311420202255249,
                9.783872604370117,
                1.9112461805343628
            ],
            "min" : [
                -2.1840786933898926,
                -0.13112449645996094,
                -2.050767660140991
            ],
            "type" : "VEC3"
        },
        {
            "bufferView" : 7,
            "componentType" : 5126,
            "count" : 45934,
            "type" : "VEC3"
        },
        {
            "bufferView" : 8,
            "componentType" : 5126,
            "count" : 45934,
            "type" : "VEC2"
        },
        {
            "bufferView" : 9,
            "componentType" : 5123,
            "count" : 45934,
            "type" : "VEC4"
        },
        {
            "bufferView" : 10,
            "componentType" : 5126,
            "count" : 45934,
            "type" : "VEC4"
        },
        {
            "bufferView" : 11,
            "componentType" : 5123,
            "count" : 46437,
            "type" : "SCALAR"
        },
        {
            "bufferView" : 12,
            "componentType" : 5126,
            "count" : 24,
            "max" : [
                2.1969807147979736,
                6.165754318237305,
                1.5092190504074097
            ],
            "min" : [
                -1.4854673147201538,
                -0.12561511993408203,
                -1.716698169708252
            ],
            "type" : "VEC3"
        },
        {
            "bufferView" : 13,
            "componentType" : 5126,
            "count" : 24,
            "type" : "VEC3"
        },
        {
            "bufferView" : 14,
            "componentType" : 5126,
            "count" : 24,
            "type" : "VEC2"
        },
        {
            "bufferView" : 15,
            "componentType" : 5123,
            "count" : 24,
            "type" : "VEC4"
        },
        {
            "bufferView" : 16,
            "componentType" : 5126,
            "count" : 24,
            "type" : "VEC4"
        },
        {
            "bufferView" : 17,
            "componentType" : 5123,
            "count" : 24,
            "type" : "SCALAR"
        }
    ],
    "bufferViews" : [
        {
            "buffer" : 0,
            "byteLength" : 786396,
            "byteOffset" : 0
        },
        {
            "buffer" : 0,
            "byteLength" : 786396,
            "byteOffset" : 786396
        },
        {
            "buffer" : 0,
            "byteLength" : 524264,
            "byteOffset" : 1572792
        },
        {
            "buffer" : 0,
            "byteLength" : 524264,
            "byteOffset" : 2097056
        },
        {
            "buffer" : 0,
            "byteLength" : 1048528,
            "byteOffset" : 2621320
        },
        {
            "buffer" : 0,
            "byteLength" : 131082,
            "byteOffset" : 3669848
        },
        {
            "buffer" : 0,
            "byteLength" : 551208,
            "byteOffset" : 3800932
        },
        {
            "buffer" : 0,
            "byteLength" : 551208,
            "byteOffset" : 4352140
        },
        {
            "buffer" : 0,
            "byteLength" : 367472,
            "byteOffset" : 4903348
        },
        {
            "buffer" : 0,
            "byteLength" : 367472,
            "byteOffset" : 5270820
        },
        {
            "buffer" : 0,
            "byteLength" : 734944,
            "byteOffset" : 5638292
        },
        {
            "buffer" : 0,
            "byteLength" : 92874,
            "byteOffset" : 6373236
        },
        {
            "buffer" : 0,
            "byteLength" : 288,
            "byteOffset" : 6466112
        },
        {
            "buffer" : 0,
            "byteLength" : 288,
            "byteOffset" : 6466400
        },
        {
            "buffer" : 0,
            "byteLength" : 192,
            "byteOffset" : 6466688
        },
        {
            "buffer" : 0,
            "byteLength" : 192,
            "byteOffset" : 6466880
        },
        {
            "buffer" : 0,
            "byteLength" : 384,
            "byteOffset" : 6467072
        },
        {
            "buffer" : 0,
            "byteLength" : 48,
            "byteOffset" : 6467456
        }
    ],
    "buffers" : [
        {
            "byteLength" : 6467504,
            "uri" : "ara.bin"
        }
    ]
}
