{
    "asset" : {
        "generator" : "Khronos glTF Blender I/O v0.9.36",
        "version" : "2.0"
    },
    "scene" : 0,
    "scenes" : [
        {
            "name" : "Scene",
            "nodes" : [
                0
            ]
        }
    ],
    "nodes" : [
        {
            "mesh" : 0,
            "name" : "Cube"
        }
    ],
    "materials" : [
        {
            "doubleSided" : true,
            "name" : "Default OBJ",
            "pbrMetallicRoughness" : {
                "baseColorTexture" : {
                    "index" : 0,
                    "texCoord" : 0
                },
                "metallicFactor" : 0,
                "roughnessFactor" : 1
            }
        },
        {
            "doubleSided" : true,
            "name" : "Material.001",
            "pbrMetallicRoughness" : {
                "baseColorFactor" : [
                    0.29613831639289856,
                    0.19120171666145325,
                    0.17464739084243774,
                    1
                ],
                "metallicFactor" : 0,
                "roughnessFactor" : 1
            }
        }
    ],
    "meshes" : [
        {
            "name" : "Cube.002",
            "primitives" : [
                {
                    "attributes" : {
                        "POSITION" : 0,
                        "NORMAL" : 1,
                        "TEXCOORD_0" : 2
                    },
                    "indices" : 3,
                    "material" : 0
                },
                {
                    "attributes" : {
                        "POSITION" : 4,
                        "NORMAL" : 5,
                        "TEXCOORD_0" : 6
                    },
                    "indices" : 7,
                    "material" : 1
                }
            ]
        }
    ],
    "textures" : [
        {
            "source" : 0
        }
    ],
    "images" : [
        {
            "mimeType" : "image/jpeg",
            "name" : "arq",
            "uri" : "arq.jpg"
        }
    ],
    "accessors" : [
        {
            "bufferView" : 0,
            "componentType" : 5126,
            "count" : 49300,
            "max" : [
                0.5233163237571716,
                0.8874098658561707,
                0.9825944304466248
            ],
            "min" : [
                -0.490824818611145,
                0.04819473624229431,
                -0.7293662428855896
            ],
            "type" : "VEC3"
        },
        {
            "bufferView" : 1,
            "componentType" : 5126,
            "count" : 49300,
            "type" : "VEC3"
        },
        {
            "bufferView" : 2,
            "componentType" : 5126,
            "count" : 49300,
            "type" : "VEC2"
        },
        {
            "bufferView" : 3,
            "componentType" : 5123,
            "count" : 213690,
            "type" : "SCALAR"
        },
        {
            "bufferView" : 4,
            "componentType" : 5126,
            "count" : 1534,
            "max" : [
                0.7615789175033569,
                0.8877208232879639,
                1.0957679748535156
            ],
            "min" : [
                -0.718622624874115,
                -0.025920897722244263,
                -1.32115638256073
            ],
            "type" : "VEC3"
        },
        {
            "bufferView" : 5,
            "componentType" : 5126,
            "count" : 1534,
            "type" : "VEC3"
        },
        {
            "bufferView" : 6,
            "componentType" : 5126,
            "count" : 1534,
            "type" : "VEC2"
        },
        {
            "bufferView" : 7,
            "componentType" : 5123,
            "count" : 4161,
            "type" : "SCALAR"
        }
    ],
    "bufferViews" : [
        {
            "buffer" : 0,
            "byteLength" : 591600,
            "byteOffset" : 0
        },
        {
            "buffer" : 0,
            "byteLength" : 591600,
            "byteOffset" : 591600
        },
        {
            "buffer" : 0,
            "byteLength" : 394400,
            "byteOffset" : 1183200
        },
        {
            "buffer" : 0,
            "byteLength" : 427380,
            "byteOffset" : 1577600
        },
        {
            "buffer" : 0,
            "byteLength" : 18408,
            "byteOffset" : 2004980
        },
        {
            "buffer" : 0,
            "byteLength" : 18408,
            "byteOffset" : 2023388
        },
        {
            "buffer" : 0,
            "byteLength" : 12272,
            "byteOffset" : 2041796
        },
        {
            "buffer" : 0,
            "byteLength" : 8322,
            "byteOffset" : 2054068
        }
    ],
    "buffers" : [
        {
            "byteLength" : 2062392,
            "uri" : "esqueleto_export.bin"
        }
    ]
}
