{
    "asset" : {
        "generator" : "Khronos glTF Blender I/O v0.9.47",
        "version" : "2.0"
    },
    "scene" : 0,
    "scenes" : [
        {
            "name" : "Scene",
            "nodes" : [
                0
            ]
        }
    ],
    "nodes" : [
        {
            "mesh" : 0,
            "name" : "Cylinder",
            "rotation" : [
                0,
                0.6200644969940186,
                0,
                0.7845508456230164
            ]
        }
    ],
    "materials" : [
        {
            "doubleSided" : true,
            "name" : "Material.001",
            "pbrMetallicRoughness" : {
                "baseColorTexture" : {
                    "index" : 0,
                    "texCoord" : 0
                },
                "metallicFactor" : 0,
                "roughnessFactor" : 0.8999999761581421
            }
        }
    ],
    "meshes" : [
        {
            "name" : "Cylinder",
            "primitives" : [
                {
                    "attributes" : {
                        "POSITION" : 0,
                        "NORMAL" : 1,
                        "TEXCOORD_0" : 2
                    },
                    "indices" : 3,
                    "material" : 0
                }
            ]
        }
    ],
    "textures" : [
        {
            "source" : 0
        }
    ],
    "images" : [
        {
            "mimeType" : "image/jpeg",
            "name" : "TexturesCom_RockSmooth0077_1_seamless_S",
            "uri" : "TexturesCom_RockSmooth0077_1_seamless_S.jpg"
        }
    ],
    "accessors" : [
        {
            "bufferView" : 0,
            "componentType" : 5126,
            "count" : 808,
            "max" : [
                11.396872520446777,
                61.588138580322266,
                11.396876335144043
            ],
            "min" : [
                -11.39687442779541,
                -4.5895586708866176e-07,
                -11.396869659423828
            ],
            "type" : "VEC3"
        },
        {
            "bufferView" : 1,
            "componentType" : 5126,
            "count" : 808,
            "type" : "VEC3"
        },
        {
            "bufferView" : 2,
            "componentType" : 5126,
            "count" : 808,
            "type" : "VEC2"
        },
        {
            "bufferView" : 3,
            "componentType" : 5123,
            "count" : 2208,
            "type" : "SCALAR"
        }
    ],
    "bufferViews" : [
        {
            "buffer" : 0,
            "byteLength" : 9696,
            "byteOffset" : 0
        },
        {
            "buffer" : 0,
            "byteLength" : 9696,
            "byteOffset" : 9696
        },
        {
            "buffer" : 0,
            "byteLength" : 6464,
            "byteOffset" : 19392
        },
        {
            "buffer" : 0,
            "byteLength" : 4416,
            "byteOffset" : 25856
        }
    ],
    "buffers" : [
        {
            "byteLength" : 30272,
            "uri" : "pelourinho_export.bin"
        }
    ]
}
