{
    "asset" : {
        "generator" : "Khronos glTF Blender I/O v0.9.36",
        "version" : "2.0"
    },
    "scene" : 0,
    "scenes" : [
        {
            "name" : "Scene",
            "nodes" : [
                0
            ]
        }
    ],
    "nodes" : [
        {
            "mesh" : 0,
            "name" : "Cube",
            "translation" : [
                0.0035051319282501936,
                -1.9500211477279663,
                0
            ]
        }
    ],
    "materials" : [
        {
            "doubleSided" : true,
            "name" : "Default OBJ",
            "pbrMetallicRoughness" : {
                "baseColorTexture" : {
                    "index" : 0,
                    "texCoord" : 0
                },
                "metallicFactor" : 0,
                "roughnessFactor" : 1
            }
        },
        {
            "doubleSided" : true,
            "name" : "Material.001",
            "pbrMetallicRoughness" : {
                "baseColorFactor" : [
                    0,
                    0,
                    0,
                    1
                ],
                "metallicFactor" : 0,
                "roughnessFactor" : 1
            }
        }
    ],
    "meshes" : [
        {
            "name" : "Cube.002",
            "primitives" : [
                {
                    "attributes" : {
                        "POSITION" : 0,
                        "NORMAL" : 1,
                        "TEXCOORD_0" : 2
                    },
                    "indices" : 3,
                    "material" : 0
                },
                {
                    "attributes" : {
                        "POSITION" : 4,
                        "NORMAL" : 5,
                        "TEXCOORD_0" : 6
                    },
                    "indices" : 7,
                    "material" : 1
                }
            ]
        }
    ],
    "textures" : [
        {
            "source" : 0
        }
    ],
    "images" : [
        {
            "mimeType" : "image/png",
            "name" : "arq",
            "uri" : "arq.png"
        }
    ],
    "accessors" : [
        {
            "bufferView" : 0,
            "componentType" : 5126,
            "count" : 51199,
            "max" : [
                0.9037732481956482,
                1.9463346004486084,
                0.498046338558197
            ],
            "min" : [
                -0.8988633751869202,
                1.4089319705963135,
                -0.530573308467865
            ],
            "type" : "VEC3"
        },
        {
            "bufferView" : 1,
            "componentType" : 5126,
            "count" : 51199,
            "type" : "VEC3"
        },
        {
            "bufferView" : 2,
            "componentType" : 5126,
            "count" : 51199,
            "type" : "VEC2"
        },
        {
            "bufferView" : 3,
            "componentType" : 5123,
            "count" : 223953,
            "type" : "SCALAR"
        },
        {
            "bufferView" : 4,
            "componentType" : 5126,
            "count" : 1436,
            "max" : [
                1,
                1.9449362754821777,
                1
            ],
            "min" : [
                -1,
                1.3385738134384155,
                -1
            ],
            "type" : "VEC3"
        },
        {
            "bufferView" : 5,
            "componentType" : 5126,
            "count" : 1436,
            "type" : "VEC3"
        },
        {
            "bufferView" : 6,
            "componentType" : 5126,
            "count" : 1436,
            "type" : "VEC2"
        },
        {
            "bufferView" : 7,
            "componentType" : 5123,
            "count" : 3855,
            "type" : "SCALAR"
        }
    ],
    "bufferViews" : [
        {
            "buffer" : 0,
            "byteLength" : 614388,
            "byteOffset" : 0
        },
        {
            "buffer" : 0,
            "byteLength" : 614388,
            "byteOffset" : 614388
        },
        {
            "buffer" : 0,
            "byteLength" : 409592,
            "byteOffset" : 1228776
        },
        {
            "buffer" : 0,
            "byteLength" : 447906,
            "byteOffset" : 1638368
        },
        {
            "buffer" : 0,
            "byteLength" : 17232,
            "byteOffset" : 2086276
        },
        {
            "buffer" : 0,
            "byteLength" : 17232,
            "byteOffset" : 2103508
        },
        {
            "buffer" : 0,
            "byteLength" : 11488,
            "byteOffset" : 2120740
        },
        {
            "buffer" : 0,
            "byteLength" : 7710,
            "byteOffset" : 2132228
        }
    ],
    "buffers" : [
        {
            "byteLength" : 2139940,
            "uri" : "untitled.bin"
        }
    ]
}
