{
    "asset" : {
        "generator" : "Khronos glTF Blender I/O v0.9.36",
        "version" : "2.0"
    },
    "scene" : 0,
    "scenes" : [
        {
            "name" : "Scene",
            "nodes" : [
                1
            ]
        }
    ],
    "nodes" : [
        {
            "mesh" : 0,
            "name" : "instant2"
        },
        {
            "children" : [
                0
            ],
            "name" : "Yup2Zup",
            "rotation" : [
                0.7071067690849304,
                0,
                0,
                0.7071067690849304
            ]
        }
    ],
    "materials" : [
        {
            "doubleSided" : true,
            "name" : "Default OBJ.001",
            "normalTexture" : {
                "index" : 0,
                "texCoord" : 0
            },
            "pbrMetallicRoughness" : {
                "baseColorTexture" : {
                    "index" : 1,
                    "texCoord" : 0
                },
                "metallicFactor" : 0,
                "roughnessFactor" : 1
            }
        }
    ],
    "meshes" : [
        {
            "name" : "instant2",
            "primitives" : [
                {
                    "attributes" : {
                        "POSITION" : 0,
                        "NORMAL" : 1,
                        "TEXCOORD_0" : 2
                    },
                    "indices" : 3,
                    "material" : 0
                }
            ]
        }
    ],
    "textures" : [
        {
            "source" : 0
        },
        {
            "source" : 1
        }
    ],
    "images" : [
        {
            "mimeType" : "image/png",
            "name" : "nor_bake2a",
            "uri" : "nor_bake2a.png"
        },
        {
            "mimeType" : "image/jpeg",
            "name" : "col_bake2",
            "uri" : "col_bake2.jpg"
        }
    ],
    "accessors" : [
        {
            "bufferView" : 0,
            "componentType" : 5126,
            "count" : 38497,
            "max" : [
                0.45981723070144653,
                0.4780588150024414,
                0.02475328929722309
            ],
            "min" : [
                -0.4648381769657135,
                -0.45128607749938965,
                -1.0410023927688599
            ],
            "type" : "VEC3"
        },
        {
            "bufferView" : 1,
            "componentType" : 5126,
            "count" : 38497,
            "type" : "VEC3"
        },
        {
            "bufferView" : 2,
            "componentType" : 5126,
            "count" : 38497,
            "type" : "VEC2"
        },
        {
            "bufferView" : 3,
            "componentType" : 5123,
            "count" : 58962,
            "type" : "SCALAR"
        }
    ],
    "bufferViews" : [
        {
            "buffer" : 0,
            "byteLength" : 461964,
            "byteOffset" : 0
        },
        {
            "buffer" : 0,
            "byteLength" : 461964,
            "byteOffset" : 461964
        },
        {
            "buffer" : 0,
            "byteLength" : 307976,
            "byteOffset" : 923928
        },
        {
            "buffer" : 0,
            "byteLength" : 117924,
            "byteOffset" : 1231904
        }
    ],
    "buffers" : [
        {
            "byteLength" : 1349828,
            "uri" : "vespasiano_export.bin"
        }
    ]
}
